<svg width="22" height="22" viewBox="0 0 22 22" fill="none" xmlns="http://www.w3.org/2000/svg">
<path opacity="0.999" d="M10.999 0.50293C5.21186 0.50293 0.502911 5.21384 0.50293 11.001C0.502934 16.7881 5.21188 21.4971 10.999 21.4971C16.7862 21.4971 21.4971 16.7881 21.4971 11.001C21.4971 5.21384 16.7862 0.50293 10.999 0.50293V0.50293ZM6.08301 5.84277H15.9209C16.1857 5.84307 16.4397 5.94806 16.6271 6.13475C16.8145 6.32144 16.9202 6.57463 16.9209 6.83887C16.9202 7.10311 16.8145 7.35629 16.6271 7.54299C16.4397 7.72968 16.1857 7.83466 15.9209 7.83496H6.08301C5.81817 7.83466 5.56424 7.72968 5.37682 7.54299C5.18939 7.35629 5.08375 7.10311 5.08301 6.83887C5.08375 6.57463 5.18939 6.32144 5.37682 6.13475C5.56424 5.94806 5.81817 5.84307 6.08301 5.84277ZM6.08301 10.0479H15.9209C16.1857 10.0481 16.4397 10.1531 16.6271 10.3398C16.8145 10.5265 16.9202 10.7797 16.9209 11.0439C16.9216 11.1754 16.8962 11.3058 16.8462 11.4275C16.7963 11.5492 16.7228 11.6598 16.6299 11.7531C16.537 11.8464 16.4265 11.9204 16.3048 11.971C16.1832 12.0216 16.0527 12.0477 15.9209 12.0479H6.08301C5.95121 12.0477 5.82073 12.0216 5.69907 11.971C5.57741 11.9204 5.46696 11.8464 5.37405 11.7531C5.28114 11.6598 5.2076 11.5492 5.15766 11.4275C5.10771 11.3058 5.08234 11.1754 5.08301 11.0439C5.08375 10.7797 5.18939 10.5265 5.37682 10.3398C5.56424 10.1531 5.81817 10.0481 6.08301 10.0479V10.0479ZM6.08301 14.1631H15.9209C16.1857 14.1634 16.4397 14.2684 16.6271 14.4551C16.8145 14.6418 16.9202 14.8949 16.9209 15.1592C16.9216 15.2907 16.8962 15.421 16.8462 15.5427C16.7963 15.6644 16.7228 15.7751 16.6299 15.8683C16.537 15.9616 16.4265 16.0357 16.3048 16.0862C16.1832 16.1368 16.0527 16.1629 15.9209 16.1631H6.08301C5.95121 16.1629 5.82073 16.1368 5.69907 16.0862C5.57741 16.0357 5.46696 15.9616 5.37405 15.8683C5.28114 15.7751 5.2076 15.6644 5.15766 15.5427C5.10771 15.421 5.08234 15.2907 5.08301 15.1592C5.08375 14.8949 5.18939 14.6418 5.37682 14.4551C5.56424 14.2684 5.81817 14.1634 6.08301 14.1631V14.1631Z" fill="white"/>
</svg>
