<svg width="15" height="20" viewBox="0 0 15 20" fill="none" xmlns="http://www.w3.org/2000/svg">
<path d="M11.7507 0.410273L0.714427 8.63527C0.490847 8.80187 0.310941 9.0105 0.187472 9.24635C0.0640039 9.48221 0 9.73951 0 10C0 10.2605 0.0640039 10.5178 0.187472 10.7537C0.310941 10.9895 0.490847 11.1981 0.714427 11.3647L11.7507 19.5897C12.0401 19.8053 12.3921 19.9426 12.7654 19.9855C13.1388 20.0285 13.5181 19.9753 13.8589 19.8323C14.1998 19.6892 14.4881 19.4622 14.6902 19.1778C14.8922 18.8933 14.9997 18.5632 15 18.2261V1.77389C14.9997 1.43675 14.8922 1.10665 14.6902 0.822214C14.4881 0.537774 14.1998 0.310755 13.8589 0.167711C13.5181 0.0246672 13.1388 -0.0284862 12.7654 0.0144692C12.3921 0.0574246 12.0401 0.194713 11.7507 0.410273V0.410273Z" fill="#7D7D7D"/>
</svg>
