<svg width="15" height="20" viewBox="0 0 15 20" fill="none" xmlns="http://www.w3.org/2000/svg">
<path d="M3.24931 19.5897L14.2856 11.3647C14.5092 11.1981 14.6891 10.9895 14.8125 10.7537C14.936 10.5178 15 10.2605 15 10C15 9.73951 14.936 9.48221 14.8125 9.24635C14.6891 9.0105 14.5092 8.80187 14.2856 8.63527L3.24931 0.410273C2.95989 0.194713 2.60792 0.0574246 2.23457 0.0144692C1.86123 -0.0284862 1.48195 0.0246672 1.14109 0.167711C0.800241 0.310755 0.511913 0.537774 0.309836 0.822214C0.107759 1.10665 0.000289767 1.43675 0 1.77389V18.2261C0.000289767 18.5632 0.107759 18.8933 0.309836 19.1778C0.511913 19.4622 0.800241 19.6892 1.14109 19.8323C1.48195 19.9753 1.86123 20.0285 2.23457 19.9855C2.60792 19.9426 2.95989 19.8053 3.24931 19.5897V19.5897Z" fill="#E4E4E4"/>
</svg>
